<svg version="1.1" id="Line__x26__Text" xmlns="http://www.w3.org/2000/svg" x="0" y="0" viewBox="0 0 617 116" style="enable-background:new 0 0 617 116" xml:space="preserve"><style>.st0{fill:#fefefe}</style><path class="st0" d="M32.8 53.7v20c12-6 26.1-9.4 39.3-9.4s27.3 3.4 39.3 9.4v-20c-12-6.2-26.1-9.7-39.3-9.7-13.1 0-27.3 3.5-39.3 9.7zm16.6-.3c-1 .3-2 .6-3.1.9v-1.1L42 54.8v3.3s4-1.5 5.7-2l1.8 1.2V62L47 65.2c-1.9.6-3.8 1.3-5.7 2-.7-.5-1.5-.9-2.2-1.4V64l3-1.2v1.7l.4-.2c1.2-.5 4-1.4 4-1.4v-4.2s-4.1 1.4-5.8 2l-1.7-1v-3.9l2.4-3.3c1.9-.7 3.8-1.4 5.7-2 .8.5 1.6 1 2.3 1.5v1.4zm10.2-3.2v9.6l1.2-.2v2.5c-1.9.2-3.7.6-5.6.9v-2.5l1.2-.2v-9.6l-2.6.5v1.7l-2.4.6v-4.2c4.4-1.1 8.8-1.8 13.3-2.2v4.2c-.8.1-1.6.2-2.5.2v-1.7l-2.6.4zM93 61.6l1.2.3v-9.6L93 52v-2.5c3.9 1 7.9 2.4 11.6 4v3.4l-3-1.2v-.9l-4.4-1.5v3.5s2.8.9 4.1 1.4v2.2c-1.2-.5-4.1-1.4-4.1-1.4v3.8l4.4 1.5v-1.1l3 1.2V68c-3.8-1.6-7.7-2.9-11.6-3.9v-2.5zM77.5 47c4.5.3 8.9 1 13.3 2v4.2c-.8-.2-1.6-.4-2.4-.5V51l-2.7-.5V60l1.2.2v2.5c-1.9-.3-3.7-.6-5.6-.8v-2.5l1.2.1v-9.6l-2.5-.2v1.7c-.8-.1-1.6-.1-2.5-.2V47zM77 59s.9.1 1.3.1v2.5c-1.8-.1-3.6-.2-5.4-.2v-2.5h1.2l-.8-2.3-4.8.1-.8 2.3h1.2v2.5l-5.1.3v-2.5l1.2-.1 4.4-12.3h3.5L77 59z"/><path class="st0" d="m122.1 60.6 4.3-9.5c-7.1-5.3-17.8-9.6-17.8-9.6l3.7-6V24.9H85.1l-9.3 14.5c-1.2 0-2.4-.1-3.7-.1-1.2 0-2.4 0-3.7.1l-9.3-14.5H31.9v10.5l3.7 6S24.9 45.7 17.8 51l4.3 9.5-6.3 20.2s5.5-3.8 12.2-7.8v8.9s3.6-2.3 7-4l-3 4.8v10.8h29.9V71.1l10.3 16.3 10.3-16.3v22.3h29.9V82.6l-3.2-4.8c3.5 1.7 7 4 7 4v-8.9c6.7 4 12.2 7.8 12.2 7.8l-6.3-20.1zm-7.9 9v8.5c-2.5-1.5-5.1-2.8-7.9-4v3.6l3.7 5.7v7.8H84.8V68c-.9-.1-1.8-.2-2.8-.3l-9.8 15.5-9.8-15.5c-.9.1-1.8.2-2.8.3v23.2H34.2v-7.8l3.7-5.7V74c-2.7 1.2-5.4 2.5-7.9 4v-8.5c-3.3 1.7-7 3.8-10.6 6.2l4.8-15.4-4-8.7c5.4-3.5 11.4-6.6 17.6-9v-1.9l-3.7-6v-7.6H58l9.2 14.3c1.7-.1 3.3-.2 5-.2 1.7 0 3.3.1 5 .2l9.2-14.3h23.7v7.6l-3.7 6v1.9c6.2 2.4 12.2 5.4 17.6 9l-4 8.7 4.8 15.4c-3.6-2.3-7.3-4.5-10.6-6.1z"/><path class="st0" d="M38 45.4c-5.2 2-9.9 4.4-14.4 7.2l3.4 7.5-3.1 9.9c2-1.2 4.1-2.2 6.2-3.3V52.1c2.4-1.2 5.9-2.9 7.9-3.7v-3zm31.3 9h3.3L71 49.9zm48 5.7 3.4-7.5c-4.5-2.8-9.2-5.2-14.4-7.2v2.9c2 .8 5.5 2.5 7.9 3.7v14.7c2.1 1 4.2 2.1 6.2 3.3l-3.1-9.9z"/><path d="M144.4 17.7v80.9h2.7V17.7m18.2 51.1V50.1h3.8c1.7 0 3.1.2 4.3.7 1.2.4 2.3 1.1 3.2 2.1 1.7 1.8 2.6 4 2.6 6.6 0 2.7-.9 4.9-2.7 6.6-1 1-2.1 1.7-3.2 2.1-1.1.4-2.6.6-4.3.6h-3.7zm2.1-1.9h1.8c2.5 0 4.4-.7 5.8-2.2 1.4-1.4 2.1-3.1 2.1-5.2s-.7-3.9-2.1-5.3c-1.4-1.4-3.3-2.2-5.9-2.2h-1.8v14.9zM193.2 52h-7.6v5.6h7.4v2h-7.4v7.3h7.6v2h-9.7V50.1h9.7V52zm6.3 8.6v8.2h-2.1V50.1h3.4c1.2 0 2.3.1 3.1.4.8.2 1.5.7 2 1.3.9 1 1.4 2.2 1.4 3.6 0 1.6-.5 2.9-1.6 3.9-1.1.9-2.5 1.4-4.3 1.4h-1.9zm0-1.9h1.7c1.3 0 2.3-.3 3-.9.7-.6 1-1.4 1-2.5 0-2.2-1.4-3.3-4.1-3.3h-1.5v6.7zm20.2 4.8h-8l-2.3 5.3h-2.3l8.6-19.6 8.4 19.6h-2.3l-2.1-5.3zm-.8-1.9-3.1-7.5-3.2 7.5h6.3zm13.2-1.2 5.9 8.4h-2.5l-5.7-8.2h-.5v8.2h-2.1V50.1h3c2.2 0 3.9.4 4.9 1.3 1.1 1 1.7 2.3 1.7 3.9 0 1.4-.4 2.6-1.3 3.5-.8 1-2 1.5-3.4 1.6zm-2.8-1.6h1.3c1.3 0 2.4-.3 3.1-.9.7-.6 1.1-1.4 1.1-2.5 0-2.2-1.4-3.3-4.2-3.3h-1.2v6.7zm16.8-6.8v16.8H244V52h-4.5v-2h11.2v2h-4.6zm7.1 16.8 3.1-19.8 7.2 15.8 7.4-15.8 2.9 19.8h-2.1l-1.7-13-6.4 13.8-6.3-13.8-1.8 13h-2.3zm35-16.8h-7.6v5.6h7.4v2h-7.4v7.3h7.6v2h-9.7V50.1h9.7V52zm4.2 16.8V49.3L307 64.6V50.1h2.1v19.6l-14.6-15.3v14.4h-2.1zM318.9 52v16.8h-2.1V52h-4.5v-2h11.2v2h-4.6zm14.8 7.3c0-2.6 1-4.8 2.9-6.7 1.9-1.9 4.2-2.8 6.9-2.8s5 1 6.9 2.9c1.9 1.9 2.9 4.2 2.9 6.8 0 2.7-1 5-2.9 6.9-1.9 1.9-4.2 2.8-6.9 2.8-2.4 0-4.5-.8-6.5-2.5-2.2-2-3.3-4.4-3.3-7.4zm2.1 0c0 2.3.8 4.2 2.4 5.7 1.5 1.4 3.3 2.1 5.2 2.1 2.1 0 4-.8 5.5-2.3 1.5-1.5 2.2-3.3 2.2-5.5s-.7-4-2.2-5.5c-1.5-1.5-3.3-2.3-5.4-2.3-2.1 0-3.9.7-5.4 2.2-1.5 1.8-2.3 3.6-2.3 5.6zM366 52h-6.4v5.6h6.2v2h-6.2v9.3h-2.1V50.1h8.5V52zM167.4 76.4v16.8h5.2v2h-7.3V76.4h2.1zm19.7 13.4h-8l-2.3 5.3h-2.3l8.6-19.6 8.4 19.6h-2.3l-2.1-5.3zm-.8-1.9-3.1-7.5-3.2 7.5h6.3zm8.4 7.2V75.6l14.6 15.3V76.4h2.1V96l-14.6-15.3v14.4h-2.1zm21.9 0V76.4h3.8c1.7 0 3.1.2 4.3.7 1.2.4 2.3 1.1 3.2 2.1 1.7 1.8 2.6 4 2.6 6.6 0 2.7-.9 4.9-2.7 6.6-1 1-2.1 1.7-3.2 2.1-1.1.4-2.6.6-4.3.6h-3.7zm2.1-1.9h1.8c2.5 0 4.4-.7 5.8-2.2 1.4-1.4 2.1-3.1 2.1-5.2s-.7-3.9-2.1-5.3c-1.4-1.4-3.3-2.2-5.9-2.2h-1.8v14.9zM244.8 79l-1.7 1.1c-.5-.8-.9-1.3-1.4-1.6-.5-.3-1.1-.4-1.8-.4-.9 0-1.6.3-2.2.8-.6.5-.9 1.2-.9 2.1 0 1.1.9 2 2.6 2.8l1.8.8c1.5.7 2.6 1.4 3.2 2.2.7.8 1 1.8 1 3 0 1.6-.6 3-1.7 4.1-1.2 1.1-2.6 1.7-4.2 1.7-1.5 0-2.7-.4-3.7-1.3-1-.8-1.7-2-2-3.6l2-.6c.5 2.3 1.8 3.4 3.8 3.4 1 0 1.9-.4 2.7-1.1.7-.7 1.1-1.6 1.1-2.6 0-.8-.2-1.4-.7-2-.5-.5-1.3-1-2.5-1.6l-1.7-.8c-.7-.3-1.3-.6-1.7-.9-.5-.3-.9-.7-1.2-1-.6-.7-.9-1.6-.9-2.6 0-1.4.5-2.5 1.5-3.5 1-.9 2.3-1.4 3.8-1.4 2.1.1 3.7 1 4.8 3zm19.2-1.1v2.6c-1.8-1.6-3.7-2.5-5.7-2.5-2.1 0-3.8.8-5.3 2.3-1.5 1.5-2.2 3.3-2.2 5.5 0 2.3.9 4.2 2.6 5.7 1.5 1.3 3.2 2 5 2 2 0 3.9-.8 5.7-2.4v2.6c-1.8 1.2-3.7 1.8-5.6 1.8-2.7 0-4.9-.9-6.8-2.8-1.9-1.9-2.9-4.2-2.9-6.8 0-2.7 1-5 2.9-6.9 1.9-1.9 4.2-2.9 6.9-2.9 1.8 0 3.7.6 5.4 1.8zm15 11.9h-8l-2.3 5.3h-2.3l8.6-19.6 8.4 19.6h-2.3l-2.1-5.3zm-.9-1.9-3.1-7.5-3.2 7.5h6.3zm10.5-1v8.2h-2.1V76.4h3.4c1.2 0 2.3.1 3.1.4.8.2 1.5.7 2 1.3.9 1 1.4 2.2 1.4 3.6 0 1.6-.5 2.9-1.6 3.9-1.1.9-2.5 1.4-4.3 1.4h-1.9zm0-1.9h1.7c1.3 0 2.3-.3 3-.9.7-.6 1-1.4 1-2.5 0-2.2-1.4-3.3-4.1-3.3h-1.5V85zm20.8-6.7h-7.6v5.6h7.4v2h-7.4v7.3h7.6v2h-9.7V76.4h9.7v1.9zM332 89.8h-8l-2.3 5.3h-2.3l8.6-19.6 8.4 19.6h-2.3l-2.1-5.3zm-.8-1.9-3.1-7.5-3.2 7.5h6.3zm13.2-1.2 5.9 8.4h-2.5l-5.7-8.2h-.5v8.2h-2.1V76.4h3c2.2 0 3.9.4 4.9 1.3 1.1 1 1.7 2.3 1.7 3.9 0 1.4-.4 2.6-1.3 3.5-.8 1-2 1.5-3.4 1.6zm-2.8-1.6h1.3c1.3 0 2.4-.3 3.1-.9.7-.6 1.1-1.4 1.1-2.5 0-2.2-1.4-3.3-4.2-3.3h-1.2v6.7zm26.4-7.2v2.6c-1.8-1.6-3.7-2.5-5.7-2.5-2.1 0-3.8.8-5.3 2.3-1.5 1.5-2.2 3.3-2.2 5.5 0 2.3.9 4.2 2.6 5.7 1.5 1.3 3.2 2 5 2 2 0 3.9-.8 5.7-2.4v2.6c-1.8 1.2-3.7 1.8-5.6 1.8-2.7 0-4.9-.9-6.8-2.8-1.9-1.9-2.9-4.2-2.9-6.8 0-2.7 1-5 2.9-6.9 1.9-1.9 4.2-2.9 6.9-2.9 1.8 0 3.6.6 5.4 1.8zm6.7 6.1h9.6v-7.6h2.1v18.7h-2.1V86h-9.6v9.2h-2.1V76.4h2.1V84zm19-7.6v18.7h-2.1V76.4h2.1zm9.9 1.9v16.8h-2.1V78.3H397v-2h11.2v2h-4.6zm17.4 0h-7.6v5.6h7.4v2h-7.4v7.3h7.6v2h-9.7V76.4h9.7v1.9zm18.6-.4v2.6c-1.8-1.6-3.7-2.5-5.7-2.5-2.1 0-3.8.8-5.3 2.3-1.5 1.5-2.2 3.3-2.2 5.5 0 2.3.9 4.2 2.6 5.7 1.5 1.3 3.2 2 5 2 2 0 3.9-.8 5.7-2.4v2.6c-1.8 1.2-3.7 1.8-5.6 1.8-2.7 0-4.9-.9-6.8-2.8-1.9-1.9-2.9-4.2-2.9-6.8 0-2.7 1-5 2.9-6.9 1.9-1.9 4.2-2.9 6.9-2.9 1.8 0 3.6.6 5.4 1.8zm8.8.4v16.8h-2.1V78.3h-4.5v-2H453v2h-4.6zm9.8-1.9v11.5c0 1.1.1 1.9.2 2.5.1.5.4 1 .7 1.5.4.5.9.9 1.6 1.2.7.3 1.4.5 2.1.5.7 0 1.4-.2 2.1-.5.7-.3 1.2-.7 1.6-1.2.3-.4.6-.9.7-1.5.1-.6.2-1.4.2-2.5V76.4h2.1v12c0 1.2-.1 2.1-.4 2.8-.3.8-.7 1.4-1.3 2.1-1.3 1.4-3 2.1-5 2.1s-3.7-.7-5-2.1c-.6-.6-1-1.3-1.3-2.1-.3-.7-.4-1.7-.4-2.8v-12h2.1zm21.4 10.3 5.9 8.4H483l-5.7-8.2h-.5v8.2h-2.1V76.4h3c2.2 0 3.9.4 4.9 1.3 1.1 1 1.7 2.3 1.7 3.9 0 1.4-.4 2.6-1.3 3.5-.8 1-1.9 1.5-3.4 1.6zm-2.7-1.6h1.3c1.3 0 2.4-.3 3.1-.9.7-.6 1.1-1.4 1.1-2.5 0-2.2-1.4-3.3-4.2-3.3H477v6.7zm22.1-6.8h-7.6v5.6h7.4v2h-7.4v7.3h7.6v2h-9.7V76.4h9.7v1.9zM178.8 38.1v-8.8l-4.2 7.7-4.2-7.7v8.8l1.3.9v2.6H165V39l1.3-.9V25.6l-1.3-.9v-2.6h5.8l3.7 6.9 3.9-6.9h5.7v2.6l-1.3.9v12.5l1.3.9v2.6h-6.7V39l1.4-.9zm15.6 3.5h-7.2V39l1.4-.9V25.7l-1.4-.9v-2.6h7.2v2.6l-1.4.9v12.5l1.4.9v2.5zM210.1 25l.3.3v2.2H206v-.9l-.5-.5h-3l-.5.5v2.8l.1.1h6.1l2.1 2.2.3.3v6.3l-3 3.3h-6.9l-2.7-3.1-.2-.3v-2.7h4.4V37l.6.7h2.9l.6-.7v-3.8l-.1-.1H200l-2.2-2.6v-5.3l2.6-2.9.3-.3h7l2.4 3zm15.9 0 .3.3v2.2h-4.4v-.9l-.5-.5h-3l-.5.5v2.8l.1.1h6.1l2.1 2.2.3.3v6.3l-3 3.3h-6.9l-2.7-3.1-.2-.3v-2.7h4.4V37l.6.7h2.9l.6-.7v-3.8l-.1-.1h-6.2l-2.2-2.6v-5.3l2.6-2.9.3-.3h7l2.4 3zm10.5 16.6h-7.2V39l1.4-.9V25.7l-1.4-.9v-2.6h7.2v2.6l-1.4.9v12.5l1.4.9v2.5zM252.2 25l.3.3v2.2H248v-.9l-.5-.5h-3l-.5.5v2.8l.1.1h6.1l2.1 2.2.3.3v6.3l-3 3.3h-6.9l-2.7-3.1-.2-.3v-2.7h4.4V37l.6.7h2.9l.6-.7v-3.8l-.1-.1H242l-2.2-2.6v-5.3l2.6-2.9.3-.3h7l2.5 3zm15.9 0 .3.3v2.2H264v-.9l-.5-.5h-3l-.5.5v2.8l.1.1h6.1l2.1 2.2.3.3v6.3l-3 3.3h-6.9l-2.7-3.1-.2-.3v-2.7h4.4V37l.6.7h2.9l.6-.7v-3.8l-.1-.1H258l-2.2-2.6v-5.3l2.6-2.9.3-.3h7l2.4 3zm10.5 16.6h-7.2V39l1.4-.9V25.7l-1.4-.9v-2.6h7.2v2.6l-1.4.9v12.5l1.4.9v2.5zm16.8-16.5.3.3v6.3l-2.7 2.9-.3.3h-5.3v3.2l1.5.9v2.6h-7.2V39l1.4-.9V25.7l-1.4-.9v-2.6h11.1l2.6 2.9zm-4.1 1.5-.5-.5h-3.4V31h3.4l.5-.5v-3.9zm20.7-1.5.3.3v6.3l-2.7 2.9-.3.3H304v3.2l1.5.9v2.6h-7.2V39l1.4-.9V25.7l-1.4-.9v-2.6h11.1l2.6 2.9zm-4.1 1.5-.5-.5H304V31h3.4l.5-.5v-3.9zm14 15h-7.2V39l1.4-.9V25.7l-1.4-.9v-2.6h7.2v2.6l-1.4.9v12.5l1.4.9v2.5zM348 25l.3.3v2.2h-4.4v-.9l-.5-.5h-3l-.5.5v2.8l.1.1h6.1l2.1 2.2.3.3v6.3l-3 3.3h-6.9l-2.7-3.1-.2-.3v-2.7h4.4V37l.6.7h2.9l.6-.7v-3.8l-.1-.1h-6.2l-2.2-2.6v-5.3l2.6-2.9.3-.3h7l2.4 3zm2.4-2.9h15.7v6.2h-3.6v-2.1h-2v12l1.4.9v2.6h-7.1V39l1.4-.9v-12h-2v2.1h-3.6v-6.1zm31 17v2.6h-6.8V39l1.3-.8-.8-2.7h-4.5l-.9 2.7 1.3.8v2.6h-6.5v-2.5l1.3-1 4.7-15.3.2-.7h4.5L380 38l1.4 1.1zm-7.4-7.2-1.1-3.9-1.2 3.9h2.3zm5.7-9.8h15.7v6.2h-3.6v-2.1h-2v12l1.4.9v2.6H384V39l1.4-.9v-12h-2v2.1h-3.6v-6.1zm17.9 0h14.2v6.1h-4.4v-2.1h-4.1v3.7h4.7v3.7h-4.7v4.1h4.1v-1.4h4.4v5.4h-14.2V39l1.4-.9V25.7l-1.4-.9v-2.7zm36.5 0h6.9v2.7l-1.6.9v12.7l-2.7 2.9-.3.3h-6.9l-3-3.2V25.7l-1.4-.9v-2.6h6.6v2.5l-.8.9v11.6l.5.5h3l.5-.5V25.5l-.9-.9v-2.5zM450.7 39v2.6h-6.6V39l1.4-.9V25.7l-1.4-.9v-2.6h5.9l5.7 10.8v-7.3l-1.2-.9v-2.6h6.4v2.6l-1.3.9v16h-4.1l-6.2-11.9v8.3l1.4.9zm20.5 2.6H464V39l1.4-.9V25.7l-1.4-.9v-2.6h7.2v2.6l-1.4.9v12.5l1.4.9v2.5zm12.1-19.5h7.4v2.7l-2 1-4.7 15.8h-3.8l-4.9-15.9-1.8-1V22h7.1v2.6l-1.2.8 2.6 8.5 2.6-8.5-1.3-.8v-2.5zm9.5 0H507v6.1h-4.4v-2.1h-4.1v3.7h4.7v3.7h-4.7v4.1h4.1v-1.4h4.4v5.4h-14.2V39l1.4-.9V25.7l-1.4-.9v-2.7zm32.9 17v2.5h-6.5V39l.9-.7-2-4.5h-2.2v4.3l1 .9v2.5h-6.7V39l1.3-.9V25.6l-1.3-.9v-2.6h11l3 3.2v5.4l-2 2.1 2.3 5.2 1.2 1.1zm-5.9-12.5-.6-.5h-3.3v3.8h3.2l.6-.7v-2.6zm21-1.6.3.3v2.2h-4.4v-.9l-.5-.5h-3l-.5.5v2.8l.1.1h6.1l2.1 2.2.3.3v6.3l-3 3.3h-6.9l-2.7-3.1-.2-.3v-2.7h4.4V37l.6.7h2.9l.6-.7v-3.8l-.1-.1h-6.2l-2.2-2.6v-5.3l2.6-2.9.3-.3h7l2.4 3zm10.5 16.6h-7.2V39l1.4-.9V25.7l-1.4-.9v-2.6h7.2v2.6l-1.4.9v12.5l1.4.9v2.5zm2.2-19.5h15.7v6.2h-3.6v-2.1h-2v12l1.4.9v2.6h-7.1V39l1.4-.9v-12h-2v2.1h-3.6v-6.1zm26.9 0h6.4v2.5l-1.3 1.1-4.3 8.5v3.9l1.4.9v2.6h-7.1V39l1.3-.9v-3.9l-4.3-8.5-1.2-1.1v-2.5h6.3v2.5l-.8.7 2.2 4.2 2.1-4.2-.8-.7v-2.5zm13.2 13v1.1h-2.1v5.4h-1.3v-5.4h-2.1v-1.1h5.5zm7.1 6.5-.2-3.8V36h-.1c-.2.6-.4 1.3-.6 1.9l-1.2 3.6h-1.3l-1.2-3.7c-.1-.5-.3-1.3-.5-1.8h-.1v1.8l-.2 3.8H594l.5-6.5h1.9l1.1 3.2c.1.5.3 1 .4 1.7.2-.6.3-1.1.5-1.6l1.1-3.2h1.9l.5 6.5h-1.2z" style="fill:#fff"/></svg>